# xmcd
#
# Track frame offsets:
#	150
#	10585
#	28145
#	47332
#	78417
#	101670
#	112205
#	139037
#	166777
#	178635
#	198097
#	222640
#	236382
#	253185
#	272902
#	296222
#
# Disc length: 4246
#
# Revision: 1
# Processed by: cddbd v1.5.1PL0 Copyright (c) Steve Scherf et al.
# Submitted via: FreeRIP 2.30 
# Normalized: r0:TDELIM( - )
#
DISCID=e4109410
DTITLE=Red Lighnin' - The Massive Sounds of Red Lighnin' Vol 3
DYEAR=1997
DGENRE=Blues
TTITLE0=Step Back Baby - King Biscuit Boy with the Ronnie Hawkins Band
TTITLE1=I Wanna Be A Blues Man - Snapper Mitchum
TTITLE2=Home Cookin' - King Curtis
TTITLE3=Dirty Mother Fucker - Billy Boy Arnold and Tony McPhee
TTITLE4=Nothing But Soul - Luther Johnson and the Muddy Waters Band
TTITLE5=Oh What a Feeling - Jimmy Ricks and The Ravens
TTITLE6=She's Fine - Phil Guy and A.C. Reed
TTITLE7=Everybody Needs Somebody - Charlie Musselwhite
TTITLE8=One Room Country Shack - Johnny 'Guitar' Watson
TTITLE9=Jukin' With Walter - Big Walter 'Shaky' Horton
TTITLE10=Hold That Train - Byther Smith
TTITLE11=Louisoana Woman - Lighnin' Hopkins
TTITLE12=Is That the Way God Planned It? - Tommy Tucker
TTITLE13=Write Me a Few of Your Lines - Mississippi Fred McDowell
TTITLE14=Little Bit Worried - Todd Sharpville
TTITLE15=Buisness Deal - Clarence Reid (Blowfly)
EXTD=
EXTT0=
EXTT1=
EXTT2=
EXTT3=
EXTT4=
EXTT5=
EXTT6=
EXTT7=
EXTT8=
EXTT9=
EXTT10=
EXTT11=
EXTT12=
EXTT13=
EXTT14=
EXTT15=
PLAYORDER=
